# xmcd
#
# Track frame offsets: 
#        150
#        13504
#        27572
#        42238
#        58811
#        72670
#        85885
#        96641
#        108019
#        119115
#        131403
#        145983
#        161162
#
# Disc length: 2349 seconds
#
# Revision: 0
# Processed by: cddbd v1.5.2PL0 Copyright (c) Steve Scherf et al.
# Submitted via: ExactAudioCopy v0.99pb4
#
DISCID=c2092b0d
DTITLE=Whiskey Chimp - Barely Right Now
DYEAR=2009
DGENRE=Bluegrass
TTITLE0=Loosen Your Bible Belt
TTITLE1=Tied Down
TTITLE2=Smile As Big As Texas
TTITLE3=The Bridge and The River
TTITLE4=Tecate
TTITLE5=Blinded By Love
TTITLE6=Free and Lonesome
TTITLE7=For Better Or Worse
TTITLE8=It Won't Be Long
TTITLE9=Northbound 101
TTITLE10=Minus Diez
TTITLE11=Dirt and Gravel
TTITLE12=Long Dark Road
EXTD=
EXTT0=
EXTT1=
EXTT2=
EXTT3=
EXTT4=
EXTT5=
EXTT6=
EXTT7=
EXTT8=
EXTT9=
EXTT10=
EXTT11=
EXTT12=
PLAYORDER=
